<svg id="svg" version="1.1" xmlns="http://www.w3.org/2000/svg" xmlns:xlink="http://www.w3.org/1999/xlink" width="400" height="444.7257383966245" viewBox="0, 0, 400,444.7257383966245">
<g id="svgg">
<path id="path0" d="M294.200 45.392 C 288.908 46.164,287.749 46.374,284.000 47.241 C 279.922 48.184,276.889 49.127,275.800 49.789 C 275.360 50.057,274.010 50.649,272.800 51.103 C 268.921 52.562,262.261 55.868,260.200 57.358 C 259.100 58.154,256.964 59.634,255.452 60.647 C 251.385 63.374,249.213 65.238,243.824 70.622 C 240.752 73.691,240.375 74.131,237.483 78.000 C 236.415 79.430,235.310 80.887,235.027 81.238 C 233.339 83.337,231.108 87.186,229.253 91.200 C 228.084 93.730,226.709 96.700,226.199 97.800 C 224.959 100.473,224.582 101.468,223.999 103.600 C 223.729 104.590,223.367 105.850,223.196 106.400 C 220.274 115.802,219.622 132.645,221.753 143.681 C 222.607 148.105,223.043 149.928,224.078 153.400 C 224.734 155.600,226.047 159.020,226.997 161.000 C 227.947 162.980,229.136 165.500,229.640 166.600 C 230.143 167.700,230.662 168.690,230.793 168.800 C 230.923 168.910,231.563 170.051,232.215 171.337 C 232.867 172.622,234.044 174.422,234.830 175.337 C 235.617 176.251,236.992 178.080,237.887 179.400 C 239.840 182.281,248.277 190.961,250.800 192.685 C 251.790 193.362,253.050 194.399,253.600 194.991 C 255.453 196.983,269.990 205.244,273.000 206.015 C 273.660 206.184,275.460 206.766,277.000 207.309 C 278.540 207.852,280.565 208.500,281.500 208.748 C 282.435 208.997,283.965 209.401,284.900 209.646 C 285.835 209.892,287.050 210.252,287.600 210.447 C 295.493 213.242,317.438 212.729,325.519 209.560 C 326.024 209.362,326.834 209.198,327.319 209.195 C 327.803 209.192,329.730 208.654,331.600 208.000 C 333.470 207.346,335.224 206.808,335.498 206.805 C 335.772 206.802,337.361 206.170,339.028 205.400 C 340.695 204.630,342.200 204.000,342.373 204.000 C 342.547 204.000,343.360 203.544,344.180 202.988 C 345.001 202.431,346.961 201.301,348.536 200.478 C 351.844 198.748,356.400 195.719,356.400 195.249 C 356.400 195.073,356.805 194.741,357.300 194.511 C 359.819 193.343,368.258 185.144,372.155 180.079 C 375.836 175.294,376.421 174.439,378.638 170.600 C 383.923 161.448,386.933 153.436,389.233 142.400 C 390.505 136.297,390.600 120.874,389.398 115.492 C 387.558 107.248,385.587 100.590,383.509 95.600 C 382.481 93.130,382.157 92.499,381.114 90.930 C 380.503 90.012,379.812 88.752,379.579 88.130 C 377.062 81.419,364.074 66.721,355.800 61.219 C 354.040 60.049,352.150 58.692,351.600 58.203 C 350.263 57.016,344.495 53.989,340.132 52.185 C 338.189 51.381,336.150 50.478,335.600 50.177 C 334.580 49.619,331.716 48.610,329.200 47.922 C 327.878 47.561,327.104 47.384,322.500 46.390 C 316.136 45.015,300.543 44.465,294.200 45.392 M225.944 166.043 C 225.399 166.389,225.858 166.568,227.000 166.455 C 227.402 166.415,228.054 167.478,230.730 172.530 C 231.526 174.031,233.037 176.327,234.088 177.632 C 235.140 178.936,236.000 180.194,236.000 180.426 C 236.000 180.657,236.172 180.741,236.383 180.611 C 236.948 180.262,236.418 179.139,235.133 177.964 C 234.510 177.395,234.000 176.720,234.000 176.464 C 234.000 176.209,233.842 176.000,233.650 176.000 C 233.457 176.000,233.052 175.499,232.750 174.886 C 229.220 167.739,227.269 165.204,225.944 166.043 M223.934 167.469 C 223.568 167.566,223.176 167.885,223.064 168.177 C 222.926 168.537,223.101 168.647,223.602 168.515 C 224.011 168.409,224.441 168.069,224.560 167.761 C 224.678 167.452,224.736 167.221,224.687 167.246 C 224.639 167.272,224.300 167.372,223.934 167.469 M104.400 167.999 C 97.049 168.658,87.261 170.857,83.937 172.595 C 82.880 173.148,81.751 173.600,81.429 173.600 C 79.957 173.600,68.462 179.329,67.806 180.390 C 67.663 180.622,66.801 181.191,65.891 181.656 C 60.988 184.157,51.774 192.254,47.057 198.206 C 41.258 205.524,40.504 206.641,37.606 212.200 C 36.230 214.840,34.975 217.180,34.818 217.400 C 34.660 217.620,34.124 218.880,33.626 220.200 C 33.129 221.520,32.575 222.960,32.394 223.400 C 32.214 223.840,31.950 224.650,31.806 225.200 C 31.663 225.750,31.368 226.830,31.150 227.600 C 30.189 231.004,29.960 231.984,29.422 235.000 C 27.496 245.790,27.482 259.016,29.385 267.800 C 31.331 276.778,32.854 281.228,36.242 287.826 C 37.703 290.672,39.315 293.831,39.825 294.848 C 40.334 295.864,41.486 297.543,42.383 298.581 C 43.281 299.618,44.716 301.486,45.573 302.733 C 47.521 305.566,55.680 313.935,57.811 315.283 C 58.685 315.837,60.300 317.101,61.400 318.091 C 62.500 319.082,64.030 320.236,64.800 320.655 C 65.570 321.075,67.550 322.203,69.200 323.163 C 70.850 324.123,73.010 325.380,74.000 325.956 C 78.480 328.563,87.019 331.513,95.000 333.209 C 95.880 333.396,97.770 333.821,99.200 334.154 C 104.608 335.411,120.646 335.348,126.800 334.046 C 138.467 331.576,147.220 328.541,153.400 324.821 C 154.500 324.159,156.300 323.163,157.400 322.608 C 158.500 322.052,160.300 320.886,161.400 320.015 C 162.500 319.145,164.390 317.757,165.600 316.931 C 168.197 315.158,177.695 305.744,179.359 303.293 C 179.996 302.355,181.076 300.994,181.759 300.269 C 183.351 298.578,189.227 288.469,190.874 284.588 C 192.832 279.974,195.763 269.760,197.013 263.200 C 197.788 259.130,197.795 244.127,197.023 240.000 C 196.203 235.608,193.184 223.862,192.762 223.420 C 192.563 223.211,192.400 222.804,192.400 222.516 C 192.400 222.227,192.061 221.228,191.647 220.296 C 191.233 219.363,190.661 217.970,190.375 217.200 C 190.090 216.430,189.338 215.033,188.706 214.096 C 188.073 213.158,187.295 211.767,186.976 211.004 C 184.592 205.298,169.932 188.073,165.215 185.435 C 164.787 185.196,162.133 183.457,159.318 181.572 C 153.865 177.920,151.038 176.445,144.800 174.000 C 143.590 173.526,141.970 172.863,141.200 172.528 C 138.121 171.187,136.932 170.837,131.400 169.643 C 123.563 167.952,112.459 167.275,104.400 167.999 M214.571 174.971 C 214.148 175.281,213.927 175.661,214.082 175.815 C 214.236 175.969,214.662 175.795,215.029 175.429 C 215.892 174.565,215.569 174.242,214.571 174.971 M210.400 178.000 C 210.400 178.220,210.670 178.400,211.000 178.400 C 211.330 178.400,211.600 178.220,211.600 178.000 C 211.600 177.780,211.330 177.600,211.000 177.600 C 210.670 177.600,210.400 177.780,210.400 178.000 M205.784 182.027 C 205.328 182.764,205.932 182.925,206.610 182.248 C 207.169 181.688,207.175 181.600,206.652 181.600 C 206.319 181.600,205.929 181.792,205.784 182.027 M230.431 185.092 C 229.934 186.182,229.935 186.183,230.767 185.430 C 231.626 184.652,231.853 184.000,231.264 184.000 C 231.080 184.000,230.704 184.492,230.431 185.092 M226.060 188.242 C 225.331 189.066,225.800 189.457,226.581 188.676 C 226.921 188.336,227.200 187.954,227.200 187.829 C 227.200 187.409,226.606 187.624,226.060 188.242 M196.869 189.239 C 196.580 189.700,196.438 190.172,196.553 190.287 C 196.828 190.561,198.000 189.380,198.000 188.829 C 198.000 188.132,197.431 188.338,196.869 189.239 M194.947 190.271 C 195.100 190.543,194.871 190.851,194.406 190.998 C 193.563 191.266,193.287 192.000,194.029 192.000 C 194.926 192.000,195.748 190.785,195.196 190.274 C 194.808 189.916,194.747 189.915,194.947 190.271 M222.100 191.398 C 221.260 192.352,221.545 193.010,222.400 192.092 C 222.840 191.620,223.200 191.136,223.200 191.017 C 223.200 190.618,222.605 190.824,222.100 191.398 M185.862 197.531 C 184.734 198.778,185.439 199.418,186.629 198.229 C 187.259 197.598,187.390 196.800,186.862 196.800 C 186.676 196.800,186.226 197.129,185.862 197.531 M212.460 199.042 C 212.162 199.378,212.012 199.745,212.125 199.859 C 212.419 200.153,214.000 199.248,214.000 198.786 C 214.000 198.199,213.068 198.354,212.460 199.042 M182.800 200.743 C 182.800 201.444,183.860 203.422,185.658 206.078 C 186.506 207.331,187.200 208.531,187.200 208.745 C 187.200 208.958,187.372 209.193,187.582 209.267 C 187.792 209.340,188.653 210.750,189.494 212.400 C 191.089 215.525,193.073 216.751,193.736 215.022 C 193.885 214.633,193.754 214.400,193.387 214.400 C 193.064 214.400,192.800 214.593,192.800 214.829 C 192.800 216.007,191.382 214.705,190.072 212.325 C 189.262 210.854,187.565 208.001,186.300 205.984 C 185.035 203.968,183.994 202.202,183.987 202.059 C 183.962 201.546,182.800 200.259,182.800 200.743 M210.087 201.209 C 209.619 201.959,209.641 201.981,210.391 201.513 C 210.836 201.235,211.200 200.871,211.200 200.704 C 211.200 200.126,210.591 200.403,210.087 201.209 M204.400 205.600 C 204.400 205.820,204.670 206.000,205.000 206.000 C 205.330 206.000,205.600 205.820,205.600 205.600 C 205.600 205.380,205.330 205.200,205.000 205.200 C 204.670 205.200,204.400 205.380,204.400 205.600 M201.700 207.398 C 201.169 208.002,201.030 208.800,201.456 208.800 C 201.766 208.800,202.770 207.519,202.787 207.100 C 202.807 206.624,202.246 206.779,201.700 207.398 M196.000 212.400 C 196.000 212.620,196.270 212.800,196.600 212.800 C 196.930 212.800,197.200 212.620,197.200 212.400 C 197.200 212.180,196.930 212.000,196.600 212.000 C 196.270 212.000,196.000 212.180,196.000 212.400 M304.400 275.411 C 298.676 276.034,295.236 276.611,292.400 277.425 C 291.190 277.772,289.529 278.223,288.709 278.428 C 287.437 278.745,284.456 279.984,281.905 281.254 C 281.523 281.444,281.033 281.600,280.815 281.600 C 280.425 281.600,277.414 282.928,273.263 284.932 C 272.087 285.499,270.377 286.513,269.463 287.184 C 268.548 287.855,266.347 289.353,264.572 290.513 C 257.835 294.915,249.458 303.093,245.152 309.473 C 244.085 311.052,242.774 312.818,242.238 313.396 C 241.703 313.975,239.972 317.092,238.392 320.324 C 236.813 323.556,235.191 326.833,234.787 327.606 C 234.058 329.004,233.375 330.958,232.411 334.400 C 232.134 335.390,231.767 336.650,231.596 337.200 C 231.425 337.750,231.078 339.280,230.824 340.600 C 230.569 341.920,230.201 343.810,230.004 344.800 C 228.555 352.089,228.748 366.767,230.395 374.500 C 230.618 375.545,230.961 377.165,231.158 378.100 C 232.221 383.153,233.608 387.279,235.694 391.600 C 236.597 393.470,237.530 395.450,237.767 396.000 C 238.641 398.028,242.045 403.721,243.348 405.335 C 244.088 406.251,245.422 408.080,246.314 409.400 C 248.087 412.024,256.575 420.885,258.776 422.410 C 259.533 422.934,261.221 424.316,262.527 425.482 C 263.833 426.647,265.075 427.600,265.289 427.600 C 265.502 427.600,266.154 427.939,266.738 428.353 C 268.011 429.256,270.278 430.551,273.000 431.929 C 274.100 432.486,275.212 433.155,275.471 433.414 C 275.934 433.877,278.403 434.943,283.641 436.942 C 285.947 437.821,294.242 440.144,299.000 441.242 C 307.026 443.095,325.377 442.731,331.200 440.604 C 331.970 440.323,333.680 439.874,335.000 439.607 C 337.149 439.172,339.167 438.595,343.600 437.149 C 344.370 436.898,345.810 436.339,346.800 435.906 C 347.790 435.474,349.050 434.941,349.600 434.722 C 350.872 434.215,351.784 433.729,356.155 431.231 C 358.110 430.114,359.837 429.200,359.993 429.200 C 360.149 429.200,360.602 428.840,361.000 428.400 C 361.398 427.960,361.887 427.600,362.086 427.600 C 362.549 427.600,369.614 421.885,372.852 418.890 C 376.457 415.557,382.368 408.591,384.421 405.257 C 385.399 403.668,387.011 401.070,388.002 399.484 C 389.763 396.664,390.082 396.061,391.328 393.200 C 392.994 389.374,396.053 380.388,397.183 376.000 C 399.138 368.412,399.357 353.106,397.644 343.800 C 397.442 342.700,397.144 341.080,396.983 340.200 C 396.821 339.320,396.555 338.420,396.390 338.200 C 396.226 337.980,395.425 335.640,394.610 333.000 C 393.795 330.360,392.964 328.029,392.764 327.820 C 392.564 327.611,392.400 327.197,392.400 326.901 C 392.400 326.604,392.040 325.616,391.600 324.706 C 391.160 323.795,390.800 322.914,390.800 322.748 C 390.800 322.380,386.854 315.852,384.739 312.722 C 383.893 311.469,383.200 310.261,383.200 310.037 C 383.200 309.814,382.435 308.839,381.500 307.872 C 380.565 306.904,379.086 305.232,378.213 304.156 C 370.774 294.989,357.732 285.699,346.000 281.211 C 344.130 280.496,342.008 279.649,341.284 279.329 C 333.364 275.828,316.770 274.066,304.400 275.411 M194.689 278.005 C 194.310 278.447,194.000 279.038,194.000 279.319 C 194.000 280.018,191.438 286.372,189.736 289.892 C 188.967 291.483,188.414 293.103,188.507 293.492 C 188.660 294.130,188.705 294.121,188.967 293.400 C 189.128 292.960,189.760 291.520,190.373 290.200 C 191.383 288.026,194.411 280.425,194.954 278.700 C 195.079 278.305,195.573 277.997,196.087 277.994 C 196.823 277.989,196.884 277.913,196.400 277.600 C 195.573 277.066,195.472 277.090,194.689 278.005 M207.043 284.167 C 207.176 284.515,207.461 284.800,207.676 284.800 C 208.202 284.800,207.873 283.891,207.275 283.692 C 206.982 283.594,206.893 283.777,207.043 284.167 M218.000 291.000 C 218.000 291.330,218.180 291.600,218.400 291.600 C 218.620 291.600,218.800 291.330,218.800 291.000 C 218.800 290.670,218.620 290.400,218.400 290.400 C 218.180 290.400,218.000 290.670,218.000 291.000 M189.600 294.229 C 189.600 294.354,189.879 294.736,190.219 295.076 C 190.989 295.847,191.499 295.443,190.808 294.610 C 190.309 294.008,189.600 293.784,189.600 294.229 M192.800 296.800 C 192.800 297.020,193.070 297.200,193.400 297.200 C 193.730 297.200,194.000 297.020,194.000 296.800 C 194.000 296.580,193.730 296.400,193.400 296.400 C 193.070 296.400,192.800 296.580,192.800 296.800 M194.400 297.600 C 194.400 297.820,194.670 298.000,195.000 298.000 C 195.330 298.000,195.600 297.820,195.600 297.600 C 195.600 297.380,195.330 297.200,195.000 297.200 C 194.670 297.200,194.400 297.380,194.400 297.600 M233.855 300.200 C 233.982 300.530,234.358 300.800,234.692 300.800 C 235.185 300.800,235.205 300.688,234.800 300.200 C 234.526 299.870,234.150 299.600,233.964 299.600 C 233.777 299.600,233.729 299.870,233.855 300.200 M200.460 300.780 C 200.548 301.044,200.751 301.247,200.910 301.230 C 201.388 301.181,201.296 300.632,200.780 300.460 C 200.516 300.372,200.372 300.516,200.460 300.780 M242.400 305.200 C 242.400 305.420,242.670 305.600,243.000 305.600 C 243.330 305.600,243.600 305.420,243.600 305.200 C 243.600 304.980,243.330 304.800,243.000 304.800 C 242.670 304.800,242.400 304.980,242.400 305.200 M244.063 306.521 C 244.137 307.084,243.629 308.211,242.756 309.421 C 240.080 313.130,238.863 315.052,237.559 317.627 C 236.843 319.042,235.974 320.432,235.628 320.716 C 235.070 321.175,235.084 321.219,235.762 321.116 C 236.259 321.040,237.095 319.891,238.173 317.800 C 239.707 314.823,242.068 311.161,243.975 308.800 C 244.829 307.742,245.095 305.600,244.371 305.600 C 244.136 305.600,243.997 306.014,244.063 306.521 M210.400 306.800 C 210.400 307.020,210.670 307.200,211.000 307.200 C 211.330 307.200,211.600 307.020,211.600 306.800 C 211.600 306.580,211.330 306.400,211.000 306.400 C 210.670 306.400,210.400 306.580,210.400 306.800 " stroke="none" fill="#217db9" fill-rule="evenodd"></path>
<path id="path1" d="M224.632 167.414 C 224.419 168.264,224.079 168.464,222.984 168.384 C 222.865 168.376,222.057 169.108,221.189 170.011 C 220.321 170.915,219.439 171.548,219.228 171.417 C 219.018 171.287,218.211 171.815,217.436 172.591 C 216.661 173.366,215.706 174.003,215.313 174.006 C 214.739 174.011,214.710 174.082,215.165 174.370 C 215.798 174.771,214.911 176.000,213.989 176.000 C 213.732 176.000,213.017 176.540,212.400 177.200 C 211.783 177.860,210.985 178.400,210.626 178.400 C 210.017 178.400,207.200 180.879,207.200 181.415 C 207.200 181.898,205.997 182.845,205.653 182.633 C 205.459 182.513,204.965 182.862,204.555 183.408 C 204.146 183.953,203.479 184.400,203.074 184.400 C 202.669 184.400,201.639 185.127,200.785 186.016 C 199.931 186.904,199.135 187.624,199.016 187.616 C 198.176 187.555,198.000 187.696,198.000 188.429 C 198.000 189.512,197.027 190.462,196.230 190.156 C 195.876 190.020,195.600 190.121,195.600 190.386 C 195.600 191.129,194.537 192.000,193.629 192.000 C 193.173 192.000,192.800 192.180,192.800 192.400 C 192.800 192.620,192.440 192.800,192.000 192.800 C 191.545 192.800,191.200 193.067,191.200 193.418 C 191.200 194.298,189.384 196.000,188.445 196.000 C 187.981 196.000,187.538 196.364,187.374 196.881 C 186.993 198.081,186.092 198.921,185.449 198.674 C 184.964 198.488,184.192 199.118,183.467 200.292 C 183.161 200.786,183.641 201.730,186.642 206.534 C 187.719 208.257,189.262 210.867,190.072 212.334 C 191.405 214.747,192.800 216.000,192.800 214.783 C 192.800 214.498,193.134 214.394,193.632 214.524 C 194.239 214.683,194.404 214.588,194.244 214.171 C 194.124 213.857,194.250 213.600,194.524 213.600 C 194.799 213.600,195.283 213.240,195.600 212.800 C 195.917 212.360,196.502 212.000,196.899 212.000 C 197.550 212.000,201.200 208.760,201.200 208.182 C 201.200 207.596,202.400 206.825,202.970 207.044 C 203.324 207.180,203.600 207.079,203.600 206.814 C 203.600 206.132,204.636 205.200,205.394 205.200 C 205.751 205.200,207.104 204.120,208.400 202.800 C 209.807 201.366,211.096 200.400,211.601 200.400 C 212.068 200.400,212.335 200.219,212.198 199.997 C 211.876 199.476,212.951 198.400,213.794 198.400 C 214.151 198.400,215.545 197.278,216.891 195.907 C 218.244 194.529,219.410 193.629,219.499 193.896 C 219.683 194.448,221.600 192.711,221.600 191.991 C 221.600 191.730,221.972 191.638,222.500 191.769 C 222.995 191.892,223.175 191.889,222.900 191.763 C 222.192 191.438,222.279 190.800,223.031 190.800 C 223.379 190.800,224.398 190.035,225.297 189.100 C 226.302 188.055,226.997 187.595,227.101 187.905 C 227.277 188.432,230.800 184.992,230.800 184.294 C 230.800 184.085,231.083 184.023,231.430 184.156 C 232.009 184.378,233.200 183.601,233.200 183.000 C 233.200 182.443,234.387 181.600,235.171 181.600 C 236.541 181.600,236.160 180.203,234.088 177.632 C 233.037 176.327,231.526 174.031,230.730 172.530 C 227.554 166.534,227.549 166.528,226.164 166.476 C 225.113 166.436,224.835 166.607,224.632 167.414 M194.955 278.700 C 194.353 280.615,190.590 289.909,190.116 290.651 C 189.035 292.343,188.772 294.000,189.583 294.000 C 189.983 294.000,190.735 294.538,191.255 295.196 C 191.800 295.886,192.581 296.394,193.100 296.396 C 193.595 296.398,194.000 296.580,194.000 296.800 C 194.000 297.020,194.360 297.200,194.800 297.200 C 195.240 297.200,195.600 297.380,195.600 297.600 C 195.600 297.820,195.920 298.000,196.312 298.000 C 196.703 298.000,197.283 298.360,197.600 298.800 C 197.917 299.240,198.497 299.600,198.888 299.600 C 199.280 299.600,199.600 299.868,199.600 300.195 C 199.600 300.574,199.927 300.756,200.500 300.695 C 200.995 300.643,201.372 300.780,201.338 301.000 C 201.304 301.220,201.529 301.632,201.838 301.916 C 202.163 302.214,202.400 302.256,202.400 302.016 C 202.400 301.787,202.591 301.600,202.824 301.600 C 203.057 301.600,203.136 301.780,203.000 302.000 C 202.864 302.220,203.033 302.400,203.376 302.400 C 203.719 302.400,204.000 302.580,204.000 302.800 C 204.000 303.020,204.320 303.200,204.712 303.200 C 205.103 303.200,205.683 303.560,206.000 304.000 C 206.317 304.440,206.897 304.800,207.288 304.800 C 207.680 304.800,208.000 304.980,208.000 305.200 C 208.000 305.420,208.450 305.600,209.000 305.600 C 209.550 305.600,210.000 305.780,210.000 306.000 C 210.000 306.220,210.360 306.400,210.800 306.400 C 211.240 306.400,211.600 306.580,211.600 306.800 C 211.600 307.020,211.960 307.200,212.400 307.200 C 213.285 307.200,213.484 307.819,212.700 308.135 C 212.425 308.246,212.605 308.351,213.100 308.368 C 213.595 308.386,214.000 308.580,214.000 308.800 C 214.000 309.020,214.288 309.200,214.640 309.200 C 214.991 309.200,215.784 309.741,216.401 310.401 C 217.066 311.113,217.987 311.636,218.662 311.684 C 219.288 311.729,220.091 312.089,220.447 312.483 C 220.803 312.877,221.388 313.200,221.747 313.200 C 222.106 313.200,222.400 313.380,222.400 313.600 C 222.400 313.820,222.760 314.000,223.200 314.000 C 223.640 314.000,224.000 314.180,224.000 314.400 C 224.000 314.620,224.360 314.800,224.800 314.800 C 225.240 314.800,225.600 315.027,225.600 315.304 C 225.600 315.581,225.953 316.028,226.385 316.298 C 227.042 316.708,227.133 316.691,226.942 316.194 C 226.817 315.867,226.914 315.600,227.157 315.600 C 227.401 315.600,227.600 315.793,227.600 316.029 C 227.600 316.631,228.638 317.600,229.283 317.600 C 229.580 317.600,230.083 317.960,230.400 318.400 C 230.717 318.840,231.257 319.200,231.600 319.200 C 231.943 319.200,232.483 319.560,232.800 320.000 C 234.154 321.879,235.848 321.031,237.573 317.610 C 238.822 315.135,243.369 308.190,243.994 307.804 C 244.609 307.423,243.914 305.600,243.153 305.600 C 242.739 305.600,242.400 305.420,242.400 305.200 C 242.400 304.980,242.080 304.800,241.688 304.800 C 241.297 304.800,240.717 304.440,240.400 304.000 C 240.083 303.560,239.543 303.200,239.200 303.200 C 238.857 303.200,238.317 302.840,238.000 302.400 C 237.683 301.960,237.103 301.600,236.712 301.600 C 236.320 301.600,236.000 301.420,236.000 301.200 C 236.000 300.980,235.550 300.800,235.000 300.800 C 234.450 300.800,234.000 300.645,234.000 300.455 C 234.000 299.764,231.869 298.000,231.034 298.000 C 230.562 298.000,229.917 297.640,229.600 297.200 C 229.283 296.760,228.703 296.400,228.312 296.400 C 227.920 296.400,227.600 296.220,227.600 296.000 C 227.600 295.780,227.150 295.600,226.600 295.600 C 226.050 295.600,225.600 295.420,225.600 295.200 C 225.600 294.980,225.280 294.800,224.888 294.800 C 224.497 294.800,223.917 294.440,223.600 294.000 C 223.283 293.560,222.684 293.200,222.269 293.200 C 221.763 293.200,221.590 293.003,221.745 292.600 C 221.885 292.235,221.745 292.000,221.387 292.000 C 221.064 292.000,220.800 291.796,220.800 291.548 C 220.800 291.254,220.309 291.175,219.400 291.323 C 218.575 291.456,218.000 291.384,218.000 291.146 C 218.000 290.530,216.934 289.600,216.229 289.600 C 215.883 289.600,215.600 289.420,215.600 289.200 C 215.600 288.980,215.322 288.800,214.982 288.800 C 214.642 288.800,213.910 288.347,213.356 287.792 C 212.802 287.238,212.170 286.895,211.953 287.029 C 211.735 287.163,211.231 286.897,210.832 286.437 C 210.433 285.977,209.812 285.600,209.453 285.600 C 209.094 285.600,208.800 285.420,208.800 285.200 C 208.800 284.980,208.459 284.800,208.043 284.800 C 207.626 284.800,207.175 284.511,207.039 284.158 C 206.899 283.792,206.537 283.615,206.197 283.746 C 205.868 283.872,205.600 283.816,205.600 283.621 C 205.600 283.426,205.825 283.176,206.100 283.065 C 206.375 282.954,206.195 282.849,205.700 282.832 C 205.205 282.814,204.800 282.620,204.800 282.400 C 204.800 282.180,204.350 282.000,203.800 282.000 C 203.250 282.000,202.800 281.820,202.800 281.600 C 202.800 281.380,202.440 281.200,202.000 281.200 C 201.560 281.200,201.200 281.020,201.200 280.800 C 201.200 280.580,200.860 280.400,200.445 280.400 C 200.030 280.400,199.265 279.862,198.745 279.204 C 197.630 277.792,195.336 277.487,194.955 278.700 " stroke="none" fill="#040404" fill-rule="evenodd"></path>
<path id="path2" d="M296.254 42.998 C 295.535 43.376,294.010 43.600,292.154 43.600 C 290.451 43.600,289.200 43.769,289.200 44.000 C 289.200 44.220,288.210 44.400,287.000 44.400 C 285.790 44.400,284.800 44.580,284.800 44.800 C 284.800 45.020,284.080 45.200,283.200 45.200 C 282.320 45.200,281.600 45.380,281.600 45.600 C 281.600 45.820,280.891 46.000,280.024 46.000 C 279.157 46.000,278.336 46.180,278.200 46.400 C 278.064 46.620,277.423 46.800,276.776 46.800 C 276.129 46.800,275.600 46.980,275.600 47.200 C 275.600 47.420,275.075 47.600,274.433 47.600 C 273.792 47.600,273.207 47.769,273.133 47.975 C 273.060 48.182,272.550 48.415,272.000 48.494 C 270.441 48.718,268.000 50.031,268.000 50.646 C 268.000 50.995,267.556 51.200,266.800 51.200 C 266.140 51.200,265.600 51.380,265.600 51.600 C 265.600 51.820,265.150 52.000,264.600 52.000 C 264.050 52.000,263.600 52.180,263.600 52.400 C 263.600 52.620,263.364 52.800,263.075 52.800 C 262.787 52.800,262.164 53.160,261.692 53.600 C 261.220 54.040,260.556 54.400,260.217 54.400 C 259.878 54.400,259.600 54.580,259.600 54.800 C 259.600 55.020,259.240 55.200,258.800 55.200 C 258.360 55.200,258.000 55.380,258.000 55.600 C 258.000 55.820,257.817 56.000,257.594 56.000 C 256.931 56.000,254.410 57.764,254.405 58.232 C 254.402 58.470,253.905 58.919,253.300 59.230 C 252.695 59.540,251.909 60.111,251.553 60.497 C 251.197 60.884,250.612 61.200,250.253 61.200 C 249.894 61.200,249.600 61.380,249.600 61.600 C 249.600 61.820,249.415 62.000,249.189 62.000 C 248.768 62.000,245.200 65.401,245.200 65.803 C 245.200 66.275,242.399 68.800,241.875 68.800 C 241.303 68.800,240.000 70.031,240.000 70.571 C 240.000 70.740,239.460 71.383,238.800 72.000 C 238.140 72.617,237.600 73.319,237.600 73.560 C 237.600 73.802,237.420 74.000,237.200 74.000 C 236.980 74.000,236.800 74.278,236.800 74.618 C 236.800 75.212,235.098 77.200,234.590 77.200 C 234.175 77.200,233.200 78.315,233.200 78.788 C 233.200 79.033,232.840 79.620,232.400 80.092 C 231.960 80.564,231.600 81.237,231.600 81.587 C 231.600 81.937,231.240 82.483,230.800 82.800 C 230.360 83.117,230.000 83.697,230.000 84.088 C 230.000 84.480,229.820 84.800,229.600 84.800 C 229.380 84.800,229.200 85.160,229.200 85.600 C 229.200 86.040,229.020 86.400,228.800 86.400 C 228.580 86.400,228.400 86.760,228.400 87.200 C 228.400 87.640,228.220 88.000,228.000 88.000 C 227.780 88.000,227.600 88.431,227.600 88.957 C 227.600 89.484,227.330 90.018,227.000 90.145 C 226.670 90.271,226.400 90.573,226.400 90.816 C 226.400 91.059,226.121 91.536,225.780 91.877 C 225.440 92.218,225.057 93.015,224.930 93.648 C 224.804 94.282,224.543 94.800,224.350 94.800 C 224.157 94.800,224.000 95.239,224.000 95.776 C 224.000 96.313,223.820 96.864,223.600 97.000 C 223.380 97.136,223.200 97.687,223.200 98.224 C 223.200 98.761,223.020 99.200,222.800 99.200 C 222.580 99.200,222.400 99.740,222.400 100.400 C 222.400 101.060,222.220 101.600,222.000 101.600 C 221.780 101.600,221.600 102.309,221.600 103.176 C 221.600 104.043,221.420 104.864,221.200 105.000 C 220.980 105.136,220.800 105.766,220.800 106.400 C 220.800 107.034,220.620 107.664,220.400 107.800 C 220.180 107.936,219.994 108.982,219.987 110.124 C 219.980 111.311,219.723 112.532,219.387 112.976 C 219.064 113.404,218.800 114.493,218.800 115.396 C 218.800 116.300,218.608 117.232,218.373 117.467 C 217.779 118.061,217.776 138.736,218.369 139.329 C 218.606 139.566,218.800 140.701,218.800 141.851 C 218.800 143.177,219.020 144.163,219.400 144.543 C 219.758 144.901,220.000 145.879,220.000 146.971 C 220.000 147.977,220.180 148.800,220.400 148.800 C 220.620 148.800,220.800 149.509,220.800 150.376 C 220.800 151.243,220.980 152.064,221.200 152.200 C 221.420 152.336,221.600 152.977,221.600 153.624 C 221.600 154.271,221.780 154.800,222.000 154.800 C 222.220 154.800,222.400 155.340,222.400 156.000 C 222.400 156.660,222.580 157.200,222.800 157.200 C 223.020 157.200,223.200 157.740,223.200 158.400 C 223.200 159.060,223.380 159.600,223.600 159.600 C 223.820 159.600,224.000 159.949,224.000 160.376 C 224.000 160.803,224.180 161.264,224.400 161.400 C 224.620 161.536,224.800 162.042,224.801 162.524 C 224.802 163.458,226.738 166.000,227.449 166.000 C 227.813 166.000,231.000 171.343,232.750 174.886 C 233.052 175.499,233.457 176.000,233.650 176.000 C 233.842 176.000,234.000 176.209,234.000 176.464 C 234.000 176.720,234.510 177.395,235.133 177.964 C 236.497 179.212,236.890 180.150,236.297 180.743 C 235.977 181.063,236.095 181.389,236.729 181.938 C 237.208 182.354,237.600 182.988,237.600 183.347 C 237.600 183.706,237.780 184.000,238.000 184.000 C 238.220 184.000,238.400 184.185,238.400 184.411 C 238.400 184.830,241.800 188.400,242.200 188.400 C 242.515 188.400,246.000 191.925,246.000 192.243 C 246.000 192.675,248.159 194.399,248.700 194.400 C 248.975 194.400,249.200 194.580,249.200 194.800 C 249.200 195.020,249.398 195.200,249.640 195.200 C 249.881 195.200,250.583 195.740,251.200 196.400 C 251.817 197.060,252.569 197.600,252.872 197.600 C 253.175 197.600,253.685 197.963,254.005 198.407 C 254.325 198.851,255.477 199.679,256.564 200.248 C 259.771 201.925,260.159 202.165,260.843 202.900 C 261.201 203.285,261.788 203.600,262.147 203.600 C 262.506 203.600,262.801 203.735,262.803 203.900 C 262.807 204.306,264.786 205.200,265.680 205.200 C 266.076 205.200,266.400 205.380,266.400 205.600 C 266.400 205.820,266.760 206.000,267.200 206.000 C 267.640 206.000,268.000 206.167,268.000 206.371 C 268.000 206.844,270.298 208.000,271.238 208.000 C 271.631 208.000,272.064 208.180,272.200 208.400 C 272.336 208.620,272.977 208.800,273.624 208.800 C 274.271 208.800,274.800 208.980,274.800 209.200 C 274.800 209.420,275.149 209.600,275.576 209.600 C 276.003 209.600,276.464 209.780,276.600 210.000 C 276.736 210.220,277.377 210.400,278.024 210.400 C 278.671 210.400,279.200 210.580,279.200 210.800 C 279.200 211.020,279.740 211.200,280.400 211.200 C 281.060 211.200,281.600 211.380,281.600 211.600 C 281.600 211.820,282.309 212.000,283.176 212.000 C 284.043 212.000,284.864 212.180,285.000 212.400 C 285.136 212.620,286.216 212.800,287.400 212.800 C 288.584 212.800,289.664 212.980,289.800 213.200 C 289.936 213.420,291.309 213.600,292.852 213.600 C 294.812 213.600,295.838 213.781,296.257 214.200 C 297.308 215.250,314.824 215.010,314.172 213.955 C 314.051 213.759,315.489 213.600,317.376 213.600 C 319.392 213.600,320.800 213.436,320.800 213.200 C 320.800 212.980,321.790 212.800,323.000 212.800 C 324.210 212.800,325.200 212.620,325.200 212.400 C 325.200 212.180,325.909 212.000,326.776 212.000 C 327.643 212.000,328.464 211.820,328.600 211.600 C 328.736 211.380,329.377 211.200,330.024 211.200 C 330.671 211.200,331.200 211.020,331.200 210.800 C 331.200 210.580,331.560 210.400,332.000 210.400 C 332.440 210.400,332.800 210.220,332.800 210.000 C 332.800 209.780,333.509 209.600,334.376 209.600 C 335.243 209.600,336.064 209.420,336.200 209.200 C 336.336 208.980,336.797 208.800,337.224 208.800 C 337.651 208.800,338.000 208.620,338.000 208.400 C 338.000 208.180,338.345 208.000,338.768 208.000 C 339.635 208.000,341.994 206.758,341.997 206.300 C 341.999 206.135,342.540 206.000,343.200 206.000 C 343.860 206.000,344.400 205.820,344.400 205.600 C 344.400 205.380,344.670 205.200,345.000 205.200 C 345.330 205.200,345.600 205.020,345.600 204.800 C 345.600 204.580,345.960 204.400,346.400 204.400 C 346.840 204.400,347.200 204.220,347.200 204.000 C 347.200 203.780,347.520 203.600,347.912 203.600 C 348.303 203.600,348.883 203.240,349.200 202.800 C 349.517 202.360,349.990 202.000,350.251 202.000 C 350.942 202.000,354.000 200.308,354.000 199.926 C 354.000 199.747,354.360 199.600,354.800 199.600 C 355.240 199.600,355.600 199.407,355.600 199.171 C 355.600 198.523,356.658 197.600,357.403 197.600 C 357.766 197.600,358.754 196.880,359.600 196.000 C 360.446 195.120,361.337 194.400,361.582 194.400 C 362.143 194.400,364.800 191.769,364.800 191.213 C 364.800 190.986,365.160 190.800,365.600 190.800 C 366.040 190.800,366.400 190.620,366.400 190.400 C 366.400 190.180,366.593 190.000,366.829 190.000 C 367.397 190.000,368.400 188.977,368.400 188.397 C 368.400 188.144,369.120 187.246,370.000 186.400 C 370.880 185.554,371.600 184.658,371.600 184.408 C 371.600 184.158,371.780 184.064,372.000 184.200 C 372.220 184.336,372.400 184.232,372.400 183.969 C 372.400 183.705,373.030 182.952,373.800 182.294 C 374.570 181.636,375.200 180.891,375.200 180.637 C 375.200 180.384,375.560 179.917,376.000 179.600 C 376.440 179.283,376.800 178.743,376.800 178.400 C 376.800 178.057,377.160 177.517,377.600 177.200 C 378.040 176.883,378.400 176.253,378.400 175.800 C 378.400 175.347,378.760 174.717,379.200 174.400 C 379.640 174.083,380.000 173.580,380.000 173.283 C 380.000 172.986,380.225 172.492,380.500 172.185 C 381.631 170.925,382.000 170.418,382.009 170.117 C 382.014 169.943,382.370 169.350,382.800 168.800 C 383.230 168.250,383.586 167.485,383.591 167.100 C 383.596 166.715,383.780 166.400,384.000 166.400 C 384.220 166.400,384.400 166.040,384.400 165.600 C 384.400 165.160,384.580 164.800,384.800 164.800 C 385.020 164.800,385.200 164.260,385.200 163.600 C 385.200 162.940,385.380 162.400,385.600 162.400 C 385.820 162.400,386.000 162.040,386.000 161.600 C 386.000 161.160,386.180 160.800,386.400 160.800 C 386.620 160.800,386.800 160.170,386.800 159.400 C 386.800 158.630,386.980 158.000,387.200 158.000 C 387.420 158.000,387.600 157.479,387.600 156.843 C 387.600 156.183,387.858 155.587,388.200 155.455 C 388.530 155.329,388.800 154.857,388.800 154.407 C 388.800 153.618,388.941 153.233,389.938 151.305 C 390.192 150.813,390.400 149.699,390.400 148.829 C 390.400 147.959,390.580 147.136,390.800 147.000 C 391.020 146.864,391.200 145.863,391.200 144.776 C 391.200 143.689,391.380 142.800,391.600 142.800 C 391.835 142.800,392.000 141.400,392.000 139.400 C 392.000 137.400,392.165 136.000,392.400 136.000 C 392.652 136.000,392.800 133.267,392.800 128.600 C 392.800 123.933,392.652 121.200,392.400 121.200 C 392.163 121.200,392.000 119.741,392.000 117.624 C 392.000 115.657,391.820 113.936,391.600 113.800 C 391.380 113.664,391.200 112.854,391.200 112.000 C 391.200 111.146,391.020 110.336,390.800 110.200 C 390.580 110.064,390.400 109.241,390.400 108.371 C 390.400 107.501,390.220 106.432,390.000 105.995 C 389.780 105.558,389.420 104.842,389.200 104.405 C 388.980 103.968,388.800 103.171,388.800 102.634 C 388.800 102.097,388.530 101.387,388.200 101.057 C 387.870 100.727,387.600 100.174,387.600 99.829 C 387.600 99.483,387.420 99.200,387.200 99.200 C 386.980 99.200,386.800 98.559,386.800 97.776 C 386.800 96.929,386.638 96.453,386.400 96.600 C 386.162 96.747,386.000 96.271,386.000 95.424 C 386.000 94.641,385.820 94.000,385.600 94.000 C 385.380 94.000,385.200 93.640,385.200 93.200 C 385.200 92.760,385.020 92.400,384.800 92.400 C 384.580 92.400,384.400 92.040,384.400 91.600 C 384.400 91.160,384.220 90.800,384.000 90.800 C 383.780 90.800,383.600 90.555,383.600 90.256 C 383.600 89.282,381.081 84.800,380.533 84.800 C 380.240 84.800,380.000 84.480,380.000 84.088 C 380.000 83.697,379.640 83.117,379.200 82.800 C 378.760 82.483,378.400 81.914,378.400 81.535 C 378.400 81.157,378.220 80.736,378.000 80.600 C 377.780 80.464,377.600 80.043,377.600 79.665 C 377.600 79.286,377.240 78.717,376.800 78.400 C 376.360 78.083,376.000 77.609,376.000 77.347 C 376.000 77.085,374.830 75.689,373.400 74.245 C 371.970 72.801,370.800 71.425,370.800 71.187 C 370.800 70.721,367.262 67.186,364.208 64.600 C 363.168 63.720,361.712 62.415,360.972 61.700 C 360.232 60.985,359.385 60.400,359.089 60.400 C 358.793 60.400,358.164 60.040,357.692 59.600 C 357.220 59.160,356.586 58.800,356.284 58.800 C 355.982 58.800,355.513 58.385,355.242 57.879 C 354.971 57.372,354.040 56.519,353.175 55.984 C 352.309 55.449,351.600 54.874,351.600 54.706 C 351.600 54.538,351.150 54.400,350.600 54.400 C 350.050 54.400,349.600 54.220,349.600 54.000 C 349.600 53.780,349.240 53.600,348.800 53.600 C 348.360 53.600,348.000 53.420,348.000 53.200 C 348.000 52.980,347.640 52.800,347.200 52.800 C 346.760 52.800,346.400 52.620,346.400 52.400 C 346.400 52.180,346.040 52.000,345.600 52.000 C 345.160 52.000,344.800 51.820,344.800 51.600 C 344.800 51.380,344.459 51.200,344.043 51.200 C 343.626 51.200,343.182 50.930,343.055 50.600 C 342.929 50.270,342.459 50.000,342.013 50.000 C 341.566 50.000,341.200 49.820,341.200 49.600 C 341.200 49.380,340.840 49.200,340.400 49.200 C 339.960 49.200,339.600 49.020,339.600 48.800 C 339.600 48.580,339.251 48.400,338.824 48.400 C 338.397 48.400,337.936 48.220,337.800 48.000 C 337.664 47.780,336.944 47.600,336.200 47.600 C 335.456 47.600,334.736 47.420,334.600 47.200 C 334.464 46.980,333.924 46.800,333.400 46.800 C 332.876 46.800,332.336 46.620,332.200 46.400 C 332.064 46.180,331.423 46.000,330.776 46.000 C 330.129 46.000,329.600 45.820,329.600 45.600 C 329.600 45.380,328.790 45.200,327.800 45.200 C 326.810 45.200,326.000 45.020,326.000 44.800 C 326.000 44.580,325.100 44.400,324.000 44.400 C 322.900 44.400,322.000 44.220,322.000 44.000 C 322.000 43.765,320.611 43.600,318.633 43.600 C 316.295 43.600,315.216 43.447,315.100 43.100 C 314.831 42.291,297.777 42.199,296.254 42.998 M317.800 45.577 C 319.340 45.799,321.455 46.164,322.500 46.390 C 327.104 47.384,327.878 47.561,329.200 47.922 C 331.716 48.610,334.580 49.619,335.600 50.177 C 336.150 50.478,338.189 51.381,340.132 52.185 C 344.495 53.989,350.263 57.016,351.600 58.203 C 352.150 58.692,354.040 60.049,355.800 61.219 C 364.074 66.721,377.062 81.419,379.579 88.130 C 379.812 88.752,380.503 90.012,381.114 90.930 C 382.157 92.499,382.481 93.130,383.509 95.600 C 385.587 100.590,387.558 107.248,389.398 115.492 C 390.600 120.874,390.505 136.297,389.233 142.400 C 386.933 153.436,383.923 161.448,378.638 170.600 C 376.421 174.439,375.836 175.294,372.155 180.079 C 368.258 185.144,359.819 193.343,357.300 194.511 C 356.805 194.741,356.400 195.073,356.400 195.249 C 356.400 195.719,351.844 198.748,348.536 200.478 C 346.961 201.301,345.001 202.431,344.180 202.988 C 343.360 203.544,342.547 204.000,342.373 204.000 C 342.200 204.000,340.695 204.630,339.028 205.400 C 337.361 206.170,335.772 206.802,335.498 206.805 C 335.224 206.808,333.470 207.346,331.600 208.000 C 329.730 208.654,327.803 209.192,327.319 209.195 C 326.834 209.198,326.024 209.362,325.519 209.560 C 317.438 212.729,295.493 213.242,287.600 210.447 C 287.050 210.252,285.835 209.892,284.900 209.646 C 283.965 209.401,282.435 208.997,281.500 208.748 C 280.565 208.500,278.540 207.852,277.000 207.309 C 275.460 206.766,273.660 206.184,273.000 206.015 C 269.990 205.244,255.453 196.983,253.600 194.991 C 253.050 194.399,251.790 193.362,250.800 192.685 C 248.277 190.961,239.840 182.281,237.887 179.400 C 236.992 178.080,235.617 176.251,234.830 175.337 C 234.044 174.422,232.867 172.622,232.215 171.337 C 231.563 170.051,230.923 168.910,230.793 168.800 C 230.662 168.690,230.143 167.700,229.640 166.600 C 229.136 165.500,227.947 162.980,226.997 161.000 C 226.047 159.020,224.734 155.600,224.078 153.400 C 223.043 149.928,222.607 148.105,221.753 143.681 C 219.622 132.645,220.274 115.802,223.196 106.400 C 223.367 105.850,223.729 104.590,223.999 103.600 C 224.582 101.468,224.959 100.473,226.199 97.800 C 226.709 96.700,228.084 93.730,229.253 91.200 C 231.108 87.186,233.339 83.337,235.027 81.238 C 235.310 80.887,236.415 79.430,237.483 78.000 C 240.375 74.131,240.752 73.691,243.824 70.622 C 249.213 65.238,251.385 63.374,255.452 60.647 C 256.964 59.634,259.100 58.154,260.200 57.358 C 262.261 55.868,268.921 52.562,272.800 51.103 C 274.010 50.649,275.360 50.057,275.800 49.789 C 277.287 48.884,284.239 46.986,289.000 46.186 C 295.770 45.048,298.344 44.876,306.400 45.021 C 311.130 45.106,316.260 45.356,317.800 45.577 M101.400 165.992 C 100.960 166.185,99.396 166.356,97.924 166.372 C 96.452 166.387,95.151 166.556,95.033 166.747 C 94.915 166.938,93.965 167.190,92.922 167.308 C 91.879 167.425,90.960 167.719,90.880 167.961 C 90.799 168.202,90.028 168.400,89.167 168.400 C 88.305 168.400,87.600 168.580,87.600 168.800 C 87.600 169.020,86.970 169.200,86.200 169.200 C 85.430 169.200,84.800 169.380,84.800 169.600 C 84.800 169.820,84.260 170.000,83.600 170.000 C 82.940 170.000,82.400 170.180,82.400 170.400 C 82.400 170.620,81.871 170.800,81.224 170.800 C 80.577 170.800,79.936 170.980,79.800 171.200 C 79.664 171.420,79.203 171.600,78.776 171.600 C 78.349 171.600,78.000 171.780,78.000 172.000 C 78.000 172.220,77.640 172.400,77.200 172.400 C 76.760 172.400,76.400 172.580,76.400 172.800 C 76.400 173.020,76.040 173.200,75.600 173.200 C 75.160 173.200,74.800 173.380,74.800 173.600 C 74.800 173.820,74.440 174.000,74.000 174.000 C 73.560 174.000,73.200 174.180,73.200 174.400 C 73.200 174.620,72.758 174.800,72.218 174.800 C 71.678 174.800,70.786 175.250,70.236 175.800 C 69.686 176.350,68.958 176.800,68.618 176.800 C 68.278 176.800,68.000 176.980,68.000 177.200 C 68.000 177.420,67.640 177.600,67.200 177.600 C 66.760 177.600,66.400 177.736,66.400 177.902 C 66.400 178.069,65.815 178.460,65.100 178.772 C 64.385 179.084,63.509 179.668,63.153 180.070 C 62.797 180.471,62.294 180.800,62.035 180.800 C 61.452 180.800,59.600 182.611,59.600 183.182 C 59.600 183.412,59.240 183.600,58.800 183.600 C 58.360 183.600,58.000 183.780,58.000 184.000 C 58.000 184.220,57.730 184.400,57.400 184.400 C 57.070 184.400,56.800 184.580,56.800 184.800 C 56.800 185.020,56.527 185.200,56.193 185.200 C 55.521 185.200,50.400 190.144,50.400 190.793 C 50.400 191.017,50.237 191.200,50.037 191.200 C 49.462 191.200,46.000 194.713,46.000 195.297 C 46.000 195.586,45.640 196.083,45.200 196.400 C 44.760 196.717,44.400 197.217,44.400 197.512 C 44.400 197.806,44.220 197.936,44.000 197.800 C 43.780 197.664,43.600 197.833,43.600 198.176 C 43.600 198.519,43.420 198.800,43.200 198.800 C 42.980 198.800,42.800 199.160,42.800 199.600 C 42.800 200.040,42.665 200.400,42.500 200.400 C 41.927 200.401,40.000 202.296,40.000 202.858 C 40.000 203.169,39.640 203.683,39.200 204.000 C 38.760 204.317,38.400 204.897,38.400 205.288 C 38.400 205.680,38.220 206.000,38.000 206.000 C 37.780 206.000,37.600 206.270,37.600 206.600 C 37.600 206.930,37.420 207.200,37.200 207.200 C 36.980 207.200,36.800 207.560,36.800 208.000 C 36.800 208.440,36.620 208.800,36.400 208.800 C 36.180 208.800,36.000 209.160,36.000 209.600 C 36.000 210.040,35.820 210.400,35.600 210.400 C 35.380 210.400,35.200 210.661,35.200 210.979 C 35.200 211.298,34.781 212.011,34.269 212.563 C 33.758 213.115,33.096 214.339,32.800 215.283 C 32.503 216.228,32.112 217.171,31.930 217.380 C 31.749 217.589,31.600 218.174,31.600 218.680 C 31.600 219.186,31.420 219.600,31.200 219.600 C 30.980 219.600,30.800 219.949,30.800 220.376 C 30.800 220.803,30.620 221.264,30.400 221.400 C 30.180 221.536,30.000 222.177,30.000 222.824 C 30.000 223.471,29.820 224.000,29.600 224.000 C 29.380 224.000,29.200 224.720,29.200 225.600 C 29.200 226.480,29.020 227.200,28.800 227.200 C 28.580 227.200,28.400 228.010,28.400 229.000 C 28.400 229.990,28.220 230.800,28.000 230.800 C 27.780 230.800,27.600 231.484,27.600 232.320 C 27.600 233.156,27.388 234.052,27.130 234.310 C 26.645 234.795,26.154 237.265,25.740 241.306 C 25.609 242.575,25.345 243.711,25.151 243.830 C 24.654 244.138,24.700 258.691,25.200 259.000 C 25.420 259.136,25.600 260.306,25.600 261.600 C 25.600 262.894,25.757 264.050,25.950 264.169 C 26.142 264.288,26.385 265.414,26.489 266.672 C 26.594 267.930,26.886 269.029,27.140 269.113 C 27.394 269.198,27.600 270.056,27.600 271.033 C 27.600 272.005,27.780 272.800,28.000 272.800 C 28.220 272.800,28.400 273.520,28.400 274.400 C 28.400 275.280,28.580 276.000,28.800 276.000 C 29.020 276.000,29.200 276.529,29.200 277.176 C 29.200 277.823,29.380 278.464,29.600 278.600 C 29.820 278.736,30.000 279.377,30.000 280.024 C 30.000 280.671,30.180 281.200,30.400 281.200 C 30.620 281.200,30.800 281.740,30.800 282.400 C 30.800 283.060,30.980 283.600,31.200 283.600 C 31.420 283.600,31.600 283.949,31.600 284.376 C 31.600 284.803,31.780 285.264,32.000 285.400 C 32.220 285.536,32.400 285.980,32.400 286.386 C 32.400 287.467,34.061 290.400,34.674 290.400 C 34.963 290.400,35.200 290.760,35.200 291.200 C 35.200 291.640,35.380 292.000,35.600 292.000 C 35.820 292.000,36.000 292.450,36.000 293.000 C 36.000 293.550,36.180 294.000,36.400 294.000 C 36.620 294.000,36.800 294.278,36.800 294.617 C 36.800 294.956,37.160 295.620,37.600 296.092 C 38.040 296.564,38.400 297.187,38.400 297.475 C 38.400 297.764,38.580 298.000,38.800 298.000 C 39.020 298.000,39.200 298.345,39.200 298.767 C 39.200 299.188,39.338 299.593,39.507 299.667 C 39.676 299.740,40.531 300.700,41.407 301.800 C 42.283 302.900,43.495 304.277,44.100 304.860 C 44.705 305.444,45.200 306.127,45.200 306.378 C 45.200 306.629,45.816 307.502,46.569 308.317 C 47.322 309.133,48.288 310.205,48.716 310.700 C 49.144 311.195,49.612 311.600,49.756 311.600 C 49.900 311.600,51.003 312.545,52.208 313.700 C 55.604 316.954,57.246 318.400,57.547 318.400 C 57.699 318.400,58.083 318.760,58.400 319.200 C 58.717 319.640,59.225 320.000,59.528 320.000 C 59.831 320.000,60.583 320.540,61.200 321.200 C 61.817 321.860,62.609 322.400,62.960 322.400 C 63.312 322.400,63.600 322.580,63.600 322.800 C 63.600 323.020,64.050 323.200,64.600 323.200 C 65.150 323.200,65.600 323.393,65.600 323.629 C 65.600 324.190,66.621 325.200,67.188 325.200 C 67.433 325.200,68.020 325.560,68.492 326.000 C 68.964 326.440,69.587 326.800,69.875 326.800 C 70.164 326.800,70.400 326.980,70.400 327.200 C 70.400 327.420,70.861 327.600,71.424 327.600 C 72.004 327.600,72.340 327.773,72.200 328.000 C 72.060 328.227,72.396 328.400,72.976 328.400 C 73.539 328.400,74.000 328.580,74.000 328.800 C 74.000 329.020,74.360 329.200,74.800 329.200 C 75.240 329.200,75.600 329.380,75.600 329.600 C 75.600 329.820,76.140 330.000,76.800 330.000 C 77.460 330.000,78.000 330.180,78.000 330.400 C 78.000 330.620,78.315 330.806,78.700 330.813 C 79.085 330.820,79.749 331.090,80.176 331.413 C 80.604 331.736,81.358 332.000,81.853 332.000 C 82.348 332.000,82.864 332.180,83.000 332.400 C 83.136 332.620,83.597 332.800,84.024 332.800 C 84.451 332.800,84.800 332.980,84.800 333.200 C 84.800 333.420,85.329 333.600,85.976 333.600 C 86.623 333.600,87.264 333.780,87.400 334.000 C 87.536 334.220,88.177 334.400,88.824 334.400 C 89.471 334.400,90.000 334.580,90.000 334.800 C 90.000 335.020,90.821 335.200,91.824 335.200 C 92.937 335.200,93.551 335.356,93.400 335.600 C 93.245 335.851,94.121 336.000,95.753 336.000 C 97.183 336.000,98.464 336.180,98.600 336.400 C 98.736 336.620,100.266 336.800,102.000 336.800 C 103.734 336.800,105.264 336.980,105.400 337.200 C 105.549 337.441,108.337 337.600,112.424 337.600 C 116.675 337.600,119.200 337.451,119.200 337.200 C 119.200 336.961,120.733 336.800,123.000 336.800 C 125.267 336.800,126.800 336.639,126.800 336.400 C 126.800 336.180,127.790 336.000,129.000 336.000 C 130.210 336.000,131.200 335.820,131.200 335.600 C 131.200 335.380,132.089 335.200,133.176 335.200 C 134.263 335.200,135.264 335.020,135.400 334.800 C 135.536 334.580,136.177 334.400,136.824 334.400 C 137.471 334.400,138.000 334.264,138.000 334.097 C 138.000 333.737,140.860 332.800,141.960 332.800 C 142.385 332.800,142.793 332.625,142.867 332.412 C 142.940 332.198,143.407 331.961,143.905 331.886 C 144.403 331.811,145.024 331.536,145.285 331.275 C 145.546 331.014,146.084 330.800,146.480 330.800 C 146.876 330.800,147.200 330.620,147.200 330.400 C 147.200 330.180,147.639 330.000,148.176 330.000 C 148.713 330.000,149.264 329.820,149.400 329.600 C 149.536 329.380,150.087 329.200,150.624 329.200 C 151.161 329.200,151.600 329.020,151.600 328.800 C 151.600 328.580,151.960 328.400,152.400 328.400 C 152.840 328.400,153.200 328.220,153.200 328.000 C 153.200 327.780,153.520 327.600,153.912 327.600 C 154.303 327.600,154.883 327.240,155.200 326.800 C 155.517 326.360,156.097 326.000,156.488 326.000 C 156.880 326.000,157.200 325.820,157.200 325.600 C 157.200 325.380,157.444 325.200,157.742 325.200 C 158.039 325.200,158.769 324.750,159.362 324.200 C 159.956 323.650,160.662 323.200,160.932 323.200 C 161.202 323.200,161.683 322.840,162.000 322.400 C 162.317 321.960,162.857 321.600,163.200 321.600 C 163.543 321.600,164.083 321.240,164.400 320.800 C 164.717 320.360,165.305 320.000,165.706 320.000 C 166.107 320.000,167.391 319.055,168.559 317.900 C 169.727 316.745,171.363 315.260,172.195 314.600 C 174.610 312.684,178.400 308.725,178.400 308.119 C 178.400 307.585,180.125 305.600,180.589 305.600 C 181.061 305.600,183.600 302.705,183.600 302.166 C 183.600 301.855,183.780 301.600,184.000 301.600 C 184.220 301.600,184.400 301.330,184.400 301.000 C 184.400 300.670,184.580 300.400,184.800 300.400 C 185.020 300.400,185.200 300.080,185.200 299.688 C 185.200 299.297,185.560 298.717,186.000 298.400 C 186.440 298.083,186.800 297.503,186.800 297.112 C 186.800 296.720,186.980 296.400,187.200 296.400 C 187.420 296.400,187.600 296.059,187.600 295.643 C 187.600 295.226,187.856 294.787,188.169 294.667 C 188.513 294.535,188.654 294.129,188.526 293.640 C 188.403 293.167,188.899 291.624,189.725 289.916 C 191.458 286.331,194.000 280.017,194.000 279.297 C 194.000 278.453,195.421 277.157,196.073 277.407 C 196.538 277.585,196.628 277.372,196.488 276.417 C 196.380 275.683,196.486 275.200,196.755 275.200 C 197.000 275.200,197.200 274.840,197.200 274.400 C 197.200 273.960,197.346 273.600,197.525 273.600 C 197.704 273.600,197.894 272.745,197.948 271.700 C 198.001 270.655,198.215 269.629,198.422 269.420 C 198.630 269.211,198.800 268.086,198.800 266.920 C 198.800 265.754,198.980 264.800,199.200 264.800 C 199.437 264.800,199.600 263.333,199.600 261.200 C 199.600 259.067,199.763 257.600,200.000 257.600 C 200.249 257.600,200.400 255.267,200.400 251.400 C 200.400 247.533,200.249 245.200,200.000 245.200 C 199.761 245.200,199.600 243.667,199.600 241.400 C 199.600 239.133,199.439 237.600,199.200 237.600 C 198.974 237.600,198.800 236.467,198.800 235.000 C 198.800 233.533,198.626 232.400,198.400 232.400 C 198.180 232.400,198.000 231.781,198.000 231.024 C 198.000 230.267,197.820 229.536,197.600 229.400 C 197.380 229.264,197.200 228.713,197.200 228.176 C 197.200 227.639,197.020 227.200,196.800 227.200 C 196.580 227.200,196.400 226.673,196.400 226.029 C 196.400 225.384,196.130 224.587,195.800 224.257 C 195.470 223.927,195.200 223.374,195.200 223.029 C 195.200 222.683,195.020 222.400,194.800 222.400 C 194.580 222.400,194.400 221.770,194.400 221.000 C 194.400 220.230,194.220 219.600,194.000 219.600 C 193.780 219.600,193.600 219.060,193.600 218.400 C 193.600 217.740,193.420 217.200,193.200 217.200 C 192.980 217.200,192.800 216.853,192.800 216.428 C 192.800 215.936,192.479 215.609,191.913 215.528 C 191.263 215.434,190.618 214.600,189.495 212.400 C 188.653 210.750,187.792 209.340,187.582 209.267 C 187.372 209.193,187.200 208.974,187.200 208.779 C 187.200 208.584,186.309 207.060,185.221 205.393 C 182.938 201.896,182.508 200.828,183.209 200.394 C 183.551 200.183,182.883 199.268,181.052 197.437 C 179.593 195.978,178.400 194.604,178.400 194.383 C 178.400 193.741,173.469 188.939,172.490 188.628 C 172.000 188.473,171.600 188.075,171.600 187.744 C 171.600 187.030,170.598 185.935,170.257 186.276 C 170.126 186.407,169.905 186.219,169.767 185.857 C 169.628 185.496,169.309 185.196,169.057 185.191 C 168.806 185.187,168.062 184.557,167.404 183.791 C 166.746 183.026,165.931 182.400,165.592 182.400 C 165.254 182.400,164.717 182.040,164.400 181.600 C 164.083 181.160,163.543 180.800,163.200 180.800 C 162.857 180.800,162.317 180.440,162.000 180.000 C 161.683 179.560,161.186 179.200,160.895 179.200 C 160.604 179.200,159.980 178.840,159.508 178.400 C 159.036 177.960,158.323 177.600,157.925 177.600 C 157.526 177.600,157.200 177.420,157.200 177.200 C 157.200 176.980,156.922 176.800,156.583 176.800 C 156.243 176.800,155.480 176.350,154.887 175.800 C 154.293 175.250,153.491 174.800,153.104 174.800 C 152.717 174.800,152.400 174.620,152.400 174.400 C 152.400 174.180,152.130 174.000,151.800 174.000 C 151.470 174.000,151.200 173.820,151.200 173.600 C 151.200 173.380,150.660 173.200,150.000 173.200 C 149.340 173.200,148.800 173.020,148.800 172.800 C 148.800 172.580,148.440 172.400,148.000 172.400 C 147.560 172.400,147.200 172.220,147.200 172.000 C 147.200 171.780,146.840 171.600,146.400 171.600 C 145.960 171.600,145.600 171.420,145.600 171.200 C 145.600 170.980,145.060 170.800,144.400 170.800 C 143.740 170.800,143.200 170.620,143.200 170.400 C 143.200 170.180,142.570 170.000,141.800 170.000 C 141.030 170.000,140.400 169.820,140.400 169.600 C 140.400 169.380,139.860 169.200,139.200 169.200 C 138.540 169.200,138.000 169.020,138.000 168.800 C 138.000 168.580,137.122 168.400,136.049 168.400 C 134.949 168.400,133.912 168.176,133.672 167.887 C 133.438 167.605,132.676 167.330,131.979 167.277 C 131.281 167.224,130.383 167.005,129.982 166.790 C 129.581 166.576,128.161 166.400,126.826 166.400 C 125.492 166.400,124.400 166.236,124.400 166.035 C 124.400 165.562,102.471 165.521,101.400 165.992 M124.600 168.417 C 127.831 168.871,133.654 170.054,136.600 170.856 C 138.318 171.323,139.016 171.577,141.200 172.528 C 141.970 172.863,143.590 173.526,144.800 174.000 C 151.038 176.445,153.865 177.920,159.318 181.572 C 162.133 183.457,164.787 185.196,165.215 185.435 C 169.932 188.073,184.592 205.298,186.976 211.004 C 187.295 211.767,188.073 213.158,188.706 214.096 C 189.338 215.033,190.090 216.430,190.375 217.200 C 190.661 217.970,191.233 219.363,191.647 220.296 C 192.061 221.228,192.400 222.227,192.400 222.516 C 192.400 222.804,192.563 223.211,192.762 223.420 C 193.184 223.862,196.203 235.608,197.023 240.000 C 197.795 244.127,197.788 259.130,197.013 263.200 C 195.763 269.760,192.832 279.974,190.874 284.588 C 189.227 288.469,183.351 298.578,181.759 300.269 C 181.076 300.994,179.996 302.355,179.359 303.293 C 177.695 305.744,168.197 315.158,165.600 316.931 C 164.390 317.757,162.500 319.145,161.400 320.015 C 160.300 320.886,158.500 322.052,157.400 322.608 C 156.300 323.163,154.500 324.159,153.400 324.821 C 147.220 328.541,138.467 331.576,126.800 334.046 C 120.646 335.348,104.608 335.411,99.200 334.154 C 97.770 333.821,95.880 333.396,95.000 333.209 C 87.019 331.513,78.480 328.563,74.000 325.956 C 73.010 325.380,70.850 324.123,69.200 323.163 C 67.550 322.203,65.570 321.075,64.800 320.655 C 64.030 320.236,62.500 319.082,61.400 318.091 C 60.300 317.101,58.685 315.837,57.811 315.283 C 55.680 313.935,47.521 305.566,45.573 302.733 C 44.716 301.486,43.281 299.618,42.383 298.581 C 41.486 297.543,40.334 295.864,39.825 294.848 C 39.315 293.831,37.703 290.672,36.242 287.826 C 32.854 281.228,31.331 276.778,29.385 267.800 C 27.482 259.016,27.496 245.790,29.422 235.000 C 29.960 231.984,30.189 231.004,31.150 227.600 C 31.368 226.830,31.663 225.750,31.806 225.200 C 31.950 224.650,32.214 223.840,32.394 223.400 C 32.575 222.960,33.129 221.520,33.626 220.200 C 34.124 218.880,34.660 217.620,34.818 217.400 C 34.975 217.180,36.230 214.840,37.606 212.200 C 40.504 206.641,41.258 205.524,47.057 198.206 C 51.774 192.254,60.988 184.157,65.891 181.656 C 66.801 181.191,67.663 180.622,67.806 180.390 C 68.462 179.329,79.957 173.600,81.429 173.600 C 81.751 173.600,82.880 173.148,83.937 172.595 C 91.391 168.697,111.719 166.609,124.600 168.417 M189.402 195.198 C 189.003 195.639,188.807 196.000,188.967 196.000 C 189.388 196.000,190.528 194.795,190.312 194.579 C 190.211 194.478,189.802 194.756,189.402 195.198 M302.800 273.200 C 302.800 273.426,301.667 273.600,300.200 273.600 C 298.733 273.600,297.600 273.774,297.600 274.000 C 297.600 274.222,296.541 274.400,295.224 274.400 C 293.917 274.400,292.736 274.580,292.600 274.800 C 292.464 275.020,291.924 275.200,291.400 275.200 C 290.876 275.200,290.336 275.380,290.200 275.600 C 290.064 275.820,289.238 276.000,288.364 276.000 C 287.320 276.000,286.696 276.206,286.545 276.600 C 286.413 276.942,285.817 277.200,285.157 277.200 C 284.521 277.200,284.000 277.380,284.000 277.600 C 284.000 277.820,283.460 278.000,282.800 278.000 C 282.140 278.000,281.600 278.180,281.600 278.400 C 281.600 278.620,281.251 278.800,280.824 278.800 C 280.397 278.800,279.936 278.980,279.800 279.200 C 279.664 279.420,279.203 279.600,278.776 279.600 C 278.349 279.600,278.000 279.780,278.000 280.000 C 278.000 280.220,277.640 280.400,277.200 280.400 C 276.760 280.400,276.400 280.580,276.400 280.800 C 276.400 281.020,276.040 281.200,275.600 281.200 C 275.160 281.200,274.800 281.380,274.800 281.600 C 274.800 281.820,274.361 282.000,273.824 282.000 C 273.287 282.000,272.736 282.180,272.600 282.400 C 272.464 282.620,272.003 282.800,271.576 282.800 C 271.149 282.800,270.800 282.968,270.800 283.173 C 270.800 283.378,270.395 283.674,269.900 283.830 C 269.405 283.987,268.709 284.449,268.353 284.857 C 267.997 285.266,267.452 285.600,267.141 285.600 C 266.831 285.600,266.317 285.960,266.000 286.400 C 265.683 286.840,265.130 287.200,264.771 287.200 C 264.412 287.200,263.554 287.740,262.863 288.400 C 262.172 289.060,261.424 289.600,261.200 289.600 C 260.976 289.600,260.228 290.140,259.537 290.800 C 258.846 291.460,258.134 292.000,257.955 292.000 C 257.775 292.000,255.777 293.806,253.514 296.013 C 247.076 302.292,246.000 303.439,246.000 304.015 C 246.000 304.258,245.730 304.727,245.400 305.057 C 245.070 305.387,244.796 306.139,244.791 306.729 C 244.786 307.318,244.419 308.250,243.975 308.800 C 242.079 311.147,239.709 314.819,238.164 317.800 C 236.875 320.288,236.321 320.993,235.673 320.970 C 235.215 320.954,234.925 321.078,235.028 321.246 C 235.132 321.414,234.988 321.697,234.708 321.875 C 234.046 322.298,233.200 323.824,233.200 324.595 C 233.200 324.928,233.020 325.200,232.800 325.200 C 232.580 325.200,232.400 325.740,232.400 326.400 C 232.400 327.060,232.220 327.600,232.000 327.600 C 231.780 327.600,231.600 328.140,231.600 328.800 C 231.600 329.460,231.420 330.000,231.200 330.000 C 230.980 330.000,230.800 330.450,230.800 331.000 C 230.800 331.550,230.620 332.000,230.400 332.000 C 230.180 332.000,230.000 332.720,230.000 333.600 C 230.000 334.480,229.839 335.200,229.642 335.200 C 229.279 335.200,228.943 336.888,228.545 340.700 C 228.425 341.855,228.163 342.800,227.963 342.800 C 227.763 342.800,227.600 344.135,227.600 345.767 C 227.600 347.784,227.440 348.787,227.100 348.901 C 226.718 349.028,226.600 351.370,226.600 358.801 C 226.600 366.232,226.718 368.573,227.100 368.700 C 227.431 368.810,227.600 369.735,227.600 371.433 C 227.600 372.878,227.775 374.000,228.000 374.000 C 228.222 374.000,228.400 375.067,228.400 376.400 C 228.400 377.733,228.578 378.800,228.800 378.800 C 229.020 378.800,229.200 379.610,229.200 380.600 C 229.200 381.590,229.380 382.400,229.600 382.400 C 229.820 382.400,230.000 382.940,230.000 383.600 C 230.000 384.260,230.180 384.800,230.400 384.800 C 230.620 384.800,230.800 385.430,230.800 386.200 C 230.800 386.970,230.980 387.600,231.200 387.600 C 231.420 387.600,231.600 388.140,231.600 388.800 C 231.600 389.460,231.780 390.000,232.000 390.000 C 232.220 390.000,232.400 390.439,232.400 390.976 C 232.400 391.513,232.580 392.064,232.800 392.200 C 233.020 392.336,233.200 392.797,233.200 393.224 C 233.200 393.651,233.380 394.000,233.600 394.000 C 233.820 394.000,234.000 394.366,234.000 394.813 C 234.000 395.259,234.270 395.729,234.600 395.855 C 234.930 395.982,235.200 396.426,235.200 396.843 C 235.200 397.259,235.380 397.600,235.600 397.600 C 235.820 397.600,236.000 397.920,236.000 398.312 C 236.000 398.703,236.360 399.283,236.800 399.600 C 237.240 399.917,237.600 400.486,237.600 400.865 C 237.600 401.243,237.780 401.664,238.000 401.800 C 238.220 401.936,238.400 402.397,238.400 402.824 C 238.400 403.251,238.580 403.600,238.800 403.600 C 239.020 403.600,239.200 403.835,239.200 404.122 C 239.200 404.586,240.232 405.899,242.788 408.686 C 243.234 409.173,243.600 409.758,243.600 409.986 C 243.600 410.214,243.780 410.400,244.000 410.400 C 244.220 410.400,244.400 410.688,244.400 411.040 C 244.400 411.391,244.940 412.183,245.600 412.800 C 246.260 413.417,246.800 414.101,246.800 414.320 C 246.800 414.818,249.549 417.600,250.040 417.600 C 250.238 417.600,250.400 417.783,250.400 418.007 C 250.400 418.656,255.521 423.600,256.193 423.600 C 256.527 423.600,256.800 423.780,256.800 424.000 C 256.800 424.220,257.070 424.400,257.400 424.400 C 257.730 424.400,258.000 424.588,258.000 424.818 C 258.000 425.363,259.840 427.200,260.385 427.200 C 260.617 427.200,261.372 427.740,262.063 428.400 C 262.754 429.060,263.562 429.600,263.859 429.600 C 264.157 429.600,264.400 429.780,264.400 430.000 C 264.400 430.220,264.810 430.400,265.312 430.400 C 265.813 430.400,266.483 430.760,266.800 431.200 C 267.117 431.640,267.599 432.000,267.870 432.000 C 268.142 432.000,268.805 432.405,269.344 432.900 C 271.108 434.520,271.556 434.800,272.383 434.800 C 272.832 434.800,273.200 434.980,273.200 435.200 C 273.200 435.420,273.560 435.600,274.000 435.600 C 274.440 435.600,274.800 435.780,274.800 436.000 C 274.800 436.220,275.160 436.400,275.600 436.400 C 276.040 436.400,276.400 436.580,276.400 436.800 C 276.400 437.020,276.760 437.200,277.200 437.200 C 277.640 437.200,278.000 437.380,278.000 437.600 C 278.000 437.820,278.630 438.000,279.400 438.000 C 280.170 438.000,280.800 438.180,280.800 438.400 C 280.800 438.620,281.340 438.800,282.000 438.800 C 282.660 438.800,283.200 438.980,283.200 439.200 C 283.200 439.420,283.663 439.600,284.229 439.600 C 284.794 439.600,285.527 439.870,285.857 440.200 C 286.187 440.530,286.894 440.800,287.429 440.800 C 287.963 440.800,288.400 440.980,288.400 441.200 C 288.400 441.420,288.940 441.600,289.600 441.600 C 290.260 441.600,290.800 441.780,290.800 442.000 C 290.800 442.220,291.430 442.400,292.200 442.400 C 292.970 442.400,293.600 442.580,293.600 442.800 C 293.600 443.022,294.656 443.200,295.967 443.200 C 297.504 443.200,298.392 443.375,298.500 443.700 C 298.629 444.088,302.032 444.200,313.713 444.200 C 325.217 444.200,328.878 444.082,329.260 443.700 C 329.535 443.425,330.624 443.200,331.680 443.200 C 332.736 443.200,333.600 443.020,333.600 442.800 C 333.600 442.580,334.410 442.400,335.400 442.400 C 336.390 442.400,337.200 442.220,337.200 442.000 C 337.200 441.780,337.740 441.600,338.400 441.600 C 339.060 441.600,339.600 441.420,339.600 441.200 C 339.600 440.980,340.056 440.800,340.613 440.800 C 341.169 440.800,341.729 440.530,341.855 440.200 C 341.997 439.830,342.605 439.600,343.443 439.600 C 344.189 439.600,344.800 439.420,344.800 439.200 C 344.800 438.980,345.340 438.800,346.000 438.800 C 346.660 438.800,347.200 438.620,347.200 438.400 C 347.200 438.180,347.560 438.000,348.000 438.000 C 348.440 438.000,348.800 437.820,348.800 437.600 C 348.800 437.380,349.102 437.200,349.472 437.200 C 350.197 437.200,352.873 436.336,353.200 435.997 C 353.310 435.883,354.255 435.358,355.300 434.832 C 356.345 434.305,357.200 433.723,357.200 433.537 C 357.200 433.352,357.566 433.200,358.013 433.200 C 358.459 433.200,358.929 432.930,359.055 432.600 C 359.182 432.270,359.502 432.000,359.767 432.000 C 360.032 432.000,360.636 431.640,361.108 431.200 C 361.580 430.760,362.204 430.400,362.495 430.400 C 362.786 430.400,363.283 430.040,363.600 429.600 C 363.917 429.160,364.497 428.800,364.888 428.800 C 365.280 428.800,365.600 428.659,365.600 428.486 C 365.600 428.314,366.127 427.861,366.770 427.481 C 367.414 427.101,369.035 425.712,370.373 424.395 C 371.711 423.078,372.906 422.000,373.029 422.000 C 373.330 422.000,377.600 417.715,377.600 417.413 C 377.600 417.112,380.295 414.400,380.594 414.400 C 380.959 414.400,383.391 411.718,383.524 411.168 C 383.592 410.886,383.997 410.166,384.424 409.566 C 384.851 408.967,385.200 408.319,385.200 408.127 C 385.200 407.934,385.560 407.517,386.000 407.200 C 386.440 406.883,386.800 406.343,386.800 406.000 C 386.800 405.657,387.171 405.112,387.625 404.788 C 388.079 404.465,388.729 403.615,389.071 402.900 C 389.412 402.185,389.851 401.600,390.046 401.600 C 390.241 401.600,390.400 401.240,390.400 400.800 C 390.400 400.360,390.580 400.000,390.800 400.000 C 391.020 400.000,391.200 399.640,391.200 399.200 C 391.200 398.760,391.380 398.400,391.600 398.400 C 391.820 398.400,392.000 398.040,392.000 397.600 C 392.000 397.160,392.180 396.800,392.400 396.800 C 392.620 396.800,392.800 396.440,392.800 396.000 C 392.800 395.560,392.980 395.200,393.200 395.200 C 393.420 395.200,393.600 394.761,393.600 394.224 C 393.600 393.687,393.780 393.136,394.000 393.000 C 394.220 392.864,394.400 392.313,394.400 391.776 C 394.400 391.239,394.580 390.800,394.800 390.800 C 395.020 390.800,395.200 390.462,395.200 390.049 C 395.200 389.636,395.470 389.074,395.800 388.800 C 396.130 388.526,396.400 388.052,396.400 387.746 C 396.400 387.205,396.576 386.766,397.538 384.905 C 397.792 384.413,398.000 383.648,398.000 383.205 C 398.000 382.762,398.180 382.400,398.400 382.400 C 398.620 382.400,398.800 381.536,398.800 380.480 C 398.800 379.424,399.025 378.335,399.300 378.060 C 399.686 377.674,399.800 373.234,399.800 358.600 C 399.800 343.965,399.686 339.526,399.300 339.140 C 399.025 338.865,398.800 337.866,398.800 336.920 C 398.800 335.974,398.620 335.200,398.400 335.200 C 398.180 335.200,398.000 334.660,398.000 334.000 C 398.000 333.340,397.820 332.800,397.600 332.800 C 397.380 332.800,397.200 332.540,397.200 332.221 C 397.200 331.903,396.750 330.796,396.200 329.762 C 395.650 328.727,395.200 327.458,395.200 326.940 C 395.200 326.423,395.020 326.000,394.800 326.000 C 394.580 326.000,394.400 325.640,394.400 325.200 C 394.400 324.760,394.220 324.400,394.000 324.400 C 393.780 324.400,393.600 324.051,393.600 323.624 C 393.600 323.197,393.420 322.736,393.200 322.600 C 392.980 322.464,392.800 322.003,392.800 321.576 C 392.800 321.149,392.620 320.800,392.400 320.800 C 392.180 320.800,392.000 320.451,392.000 320.024 C 392.000 319.597,391.820 319.136,391.600 319.000 C 391.380 318.864,391.200 318.437,391.200 318.052 C 391.200 317.666,390.840 316.964,390.400 316.492 C 389.960 316.020,389.600 315.472,389.600 315.275 C 389.600 315.078,389.150 314.431,388.600 313.838 C 388.050 313.244,387.600 312.538,387.600 312.268 C 387.600 311.998,387.240 311.517,386.800 311.200 C 386.360 310.883,386.000 310.343,386.000 310.000 C 386.000 309.657,385.640 309.117,385.200 308.800 C 384.760 308.483,384.400 307.903,384.400 307.512 C 384.400 307.120,384.220 306.800,384.000 306.800 C 383.780 306.800,383.600 306.612,383.600 306.382 C 383.600 305.936,381.804 304.000,381.390 304.000 C 381.032 304.000,380.001 302.915,379.993 302.529 C 379.969 301.461,374.193 295.600,373.164 295.600 C 372.737 295.600,370.304 293.222,368.885 291.417 C 368.118 290.443,365.522 288.800,364.748 288.800 C 364.513 288.800,363.817 288.260,363.200 287.600 C 362.583 286.940,361.831 286.400,361.528 286.400 C 361.225 286.400,360.717 286.040,360.400 285.600 C 360.083 285.160,359.503 284.800,359.112 284.800 C 358.720 284.800,358.400 284.623,358.400 284.408 C 358.400 284.192,357.950 283.902,357.400 283.764 C 356.850 283.626,356.400 283.353,356.400 283.157 C 356.400 282.960,356.040 282.800,355.600 282.800 C 355.160 282.800,354.800 282.620,354.800 282.400 C 354.800 282.180,354.440 282.000,354.000 282.000 C 353.560 282.000,353.200 281.820,353.200 281.600 C 353.200 281.380,352.840 281.200,352.400 281.200 C 351.960 281.200,351.600 281.020,351.600 280.800 C 351.600 280.580,351.150 280.400,350.600 280.400 C 350.050 280.400,349.600 280.220,349.600 280.000 C 349.600 279.780,349.240 279.600,348.800 279.600 C 348.360 279.600,348.000 279.420,348.000 279.200 C 348.000 278.980,347.640 278.800,347.200 278.800 C 346.760 278.800,346.400 278.620,346.400 278.400 C 346.400 278.180,345.871 278.000,345.224 278.000 C 344.577 278.000,343.936 277.820,343.800 277.600 C 343.664 277.380,343.043 277.200,342.419 277.200 C 341.781 277.200,341.185 276.938,341.055 276.600 C 340.912 276.226,340.302 276.000,339.436 276.000 C 338.672 276.000,337.936 275.820,337.800 275.600 C 337.664 275.380,337.034 275.200,336.400 275.200 C 335.766 275.200,335.136 275.020,335.000 274.800 C 334.864 274.580,333.773 274.400,332.576 274.400 C 331.379 274.400,330.400 274.220,330.400 274.000 C 330.400 273.769,329.133 273.600,327.400 273.600 C 325.667 273.600,324.400 273.431,324.400 273.200 C 324.400 272.943,320.533 272.800,313.600 272.800 C 306.667 272.800,302.800 272.943,302.800 273.200 M323.000 275.376 C 330.282 276.159,337.781 277.781,341.284 279.329 C 342.008 279.649,344.130 280.496,346.000 281.211 C 357.732 285.699,370.774 294.989,378.213 304.156 C 379.086 305.232,380.565 306.904,381.500 307.872 C 382.435 308.839,383.200 309.814,383.200 310.037 C 383.200 310.261,383.893 311.469,384.739 312.722 C 386.854 315.852,390.800 322.380,390.800 322.748 C 390.800 322.914,391.160 323.795,391.600 324.706 C 392.040 325.616,392.400 326.604,392.400 326.901 C 392.400 327.197,392.564 327.611,392.764 327.820 C 392.964 328.029,393.795 330.360,394.610 333.000 C 395.425 335.640,396.226 337.980,396.390 338.200 C 396.555 338.420,396.821 339.320,396.983 340.200 C 397.144 341.080,397.442 342.700,397.644 343.800 C 399.357 353.106,399.138 368.412,397.183 376.000 C 396.053 380.388,392.994 389.374,391.328 393.200 C 390.082 396.061,389.763 396.664,388.002 399.484 C 387.011 401.070,385.399 403.668,384.421 405.257 C 382.368 408.591,376.457 415.557,372.852 418.890 C 369.614 421.885,362.549 427.600,362.086 427.600 C 361.887 427.600,361.398 427.960,361.000 428.400 C 360.602 428.840,360.149 429.200,359.993 429.200 C 359.837 429.200,358.110 430.114,356.155 431.231 C 351.784 433.729,350.872 434.215,349.600 434.722 C 349.050 434.941,347.790 435.474,346.800 435.906 C 345.810 436.339,344.370 436.898,343.600 437.149 C 339.167 438.595,337.149 439.172,335.000 439.607 C 333.680 439.874,331.970 440.323,331.200 440.604 C 325.377 442.731,307.026 443.095,299.000 441.242 C 294.242 440.144,285.947 437.821,283.641 436.942 C 278.403 434.943,275.934 433.877,275.471 433.414 C 275.212 433.155,274.100 432.486,273.000 431.929 C 270.278 430.551,268.011 429.256,266.738 428.353 C 266.154 427.939,265.502 427.600,265.289 427.600 C 265.075 427.600,263.833 426.647,262.527 425.482 C 261.221 424.316,259.533 422.934,258.776 422.410 C 256.575 420.885,248.087 412.024,246.314 409.400 C 245.422 408.080,244.088 406.251,243.348 405.335 C 242.045 403.721,238.641 398.028,237.767 396.000 C 237.530 395.450,236.597 393.470,235.694 391.600 C 233.608 387.279,232.221 383.153,231.158 378.100 C 230.961 377.165,230.618 375.545,230.395 374.500 C 228.748 366.767,228.555 352.089,230.004 344.800 C 230.201 343.810,230.569 341.920,230.824 340.600 C 231.078 339.280,231.425 337.750,231.596 337.200 C 231.767 336.650,232.134 335.390,232.411 334.400 C 233.375 330.958,234.058 329.004,234.787 327.606 C 235.191 326.833,236.813 323.556,238.392 320.324 C 239.972 317.092,241.703 313.975,242.238 313.396 C 242.774 312.818,244.085 311.052,245.152 309.473 C 249.458 303.093,257.835 294.915,264.572 290.513 C 266.347 289.353,268.548 287.855,269.463 287.184 C 270.377 286.513,272.087 285.499,273.263 284.932 C 277.414 282.928,280.425 281.600,280.815 281.600 C 281.033 281.600,281.523 281.444,281.905 281.254 C 284.456 279.984,287.437 278.745,288.709 278.428 C 289.529 278.223,291.190 277.772,292.400 277.425 C 300.137 275.205,313.252 274.327,323.000 275.376 " stroke="none" fill="#5fb9d6" fill-rule="evenodd"></path>
</g>
</svg>